<svg width="394" height="50" viewBox="0 0 394 50" fill="none" xmlns="http://www.w3.org/2000/svg">
<path d="M98.495 12.87H86.615V44H77.595V12.87H65.66V4.95H98.495V12.87ZM118.728 22.66C116.601 22.6967 114.676 23.045 112.953 23.705C111.229 24.365 109.983 25.355 109.213 26.675V44H100.413V15.125H108.498V20.955C109.488 19.0117 110.771 17.49 112.348 16.39C113.924 15.29 115.574 14.7217 117.298 14.685C118.031 14.685 118.508 14.7033 118.728 14.74V22.66ZM122.159 33.605V15.125H130.959V31.68C130.959 35.31 132.298 37.125 134.974 37.125C136.148 37.125 137.284 36.8133 138.384 36.19C139.484 35.53 140.456 34.4483 141.299 32.945V15.125H150.099V34.21C150.099 35.09 150.228 35.7133 150.484 36.08C150.778 36.4467 151.273 36.6483 151.969 36.685V44C151.126 44.1467 150.411 44.2567 149.824 44.33C149.238 44.4033 148.706 44.44 148.229 44.44C145.076 44.44 143.279 43.2117 142.839 40.755L142.674 38.995C141.354 40.9017 139.704 42.3133 137.724 43.23C135.781 44.11 133.599 44.55 131.179 44.55C128.246 44.55 126.009 43.615 124.469 41.745C122.929 39.875 122.159 37.1617 122.159 33.605ZM167.972 44.55C165.478 44.55 163.058 44.1467 160.712 43.34C158.402 42.4967 156.44 41.305 154.827 39.765L157.852 34.21C161.408 36.8133 164.69 38.115 167.697 38.115C168.833 38.115 169.713 37.9317 170.337 37.565C170.96 37.1983 171.272 36.63 171.272 35.86C171.272 35.0533 170.85 34.485 170.007 34.155C169.163 33.7883 167.917 33.3667 166.267 32.89C164.067 32.1567 162.233 31.4417 160.767 30.745C159.3 30.0483 158.2 29.205 157.467 28.215C156.733 27.225 156.367 25.905 156.367 24.255C156.367 21.3583 157.448 19.03 159.612 17.27C161.775 15.4733 164.708 14.575 168.412 14.575C170.392 14.575 172.317 14.8867 174.187 15.51C176.093 16.1333 177.872 17.1783 179.522 18.645L176.112 24.145C174.462 23.0083 172.995 22.1833 171.712 21.67C170.428 21.1567 169.182 20.9 167.972 20.9C167.018 20.9 166.212 21.0833 165.552 21.45C164.892 21.78 164.562 22.3667 164.562 23.21C164.562 24.0167 164.928 24.6217 165.662 25.025C166.395 25.3917 167.532 25.795 169.072 26.235C171.418 26.9317 173.38 27.6467 174.957 28.38C176.57 29.0767 177.762 29.9567 178.532 31.02C179.338 32.0467 179.742 33.4217 179.742 35.145C179.742 38.0783 178.678 40.3883 176.552 42.075C174.425 43.725 171.565 44.55 167.972 44.55ZM202.741 42.46C201.531 42.9733 200.137 43.45 198.561 43.89C197.021 44.33 195.462 44.55 193.886 44.55C192.419 44.55 191.081 44.3117 189.871 43.835C188.661 43.3217 187.689 42.4967 186.956 41.36C186.222 40.2233 185.856 38.72 185.856 36.85V21.78H182.171V15.125H185.856V5.94H194.656V15.125H200.541V21.78H194.656V33.825C194.656 34.7783 194.894 35.475 195.371 35.915C195.847 36.3183 196.452 36.52 197.186 36.52C197.846 36.52 198.524 36.41 199.221 36.19C199.917 35.97 200.522 35.7317 201.036 35.475L202.741 42.46ZM252.006 33.99C252.006 36.2267 251.401 38.0967 250.191 39.6C248.981 41.0667 247.368 42.1667 245.351 42.9C243.371 43.6333 241.171 44 238.751 44H219.721V4.95H241.446C243.28 4.95 244.856 5.445 246.176 6.435C247.496 7.38833 248.523 8.635 249.256 10.175C249.99 11.715 250.356 13.31 250.356 14.96C250.356 16.7933 249.88 18.5533 248.926 20.24C247.973 21.9267 246.58 23.1733 244.746 23.98C246.946 24.64 248.706 25.8133 250.026 27.5C251.346 29.1867 252.006 31.35 252.006 33.99ZM228.741 12.65V20.735H237.596C238.586 20.735 239.466 20.405 240.236 19.745C241.006 19.085 241.391 18.0583 241.391 16.665C241.391 15.3817 241.043 14.3917 240.346 13.695C239.686 12.9983 238.88 12.65 237.926 12.65H228.741ZM242.821 32.175C242.821 30.965 242.473 29.9383 241.776 29.095C241.08 28.2517 240.2 27.83 239.136 27.83H228.741V36.355H238.751C239.888 36.355 240.841 35.97 241.611 35.2C242.418 34.3933 242.821 33.385 242.821 32.175ZM274.919 22.66C272.792 22.6967 270.867 23.045 269.144 23.705C267.421 24.365 266.174 25.355 265.404 26.675V44H256.604V15.125H264.689V20.955C265.679 19.0117 266.962 17.49 268.539 16.39C270.116 15.29 271.766 14.7217 273.489 14.685C274.222 14.685 274.699 14.7033 274.919 14.74V22.66ZM292.161 44.55C288.861 44.55 286.056 43.8533 283.746 42.46C281.472 41.0667 279.731 39.2333 278.521 36.96C277.311 34.6867 276.706 32.23 276.706 29.59C276.706 26.9133 277.311 24.4383 278.521 22.165C279.731 19.8917 281.491 18.0583 283.801 16.665C286.111 15.2717 288.897 14.575 292.161 14.575C295.424 14.575 298.211 15.2717 300.521 16.665C302.831 18.0583 304.591 19.8917 305.801 22.165C307.011 24.4383 307.616 26.9133 307.616 29.59C307.616 32.23 307.011 34.6867 305.801 36.96C304.591 39.2333 302.831 41.0667 300.521 42.46C298.211 43.8533 295.424 44.55 292.161 44.55ZM285.726 29.59C285.726 31.8267 286.331 33.6417 287.541 35.035C288.787 36.4283 290.327 37.125 292.161 37.125C293.957 37.125 295.461 36.4283 296.671 35.035C297.917 33.6417 298.541 31.8267 298.541 29.59C298.541 27.3533 297.917 25.5383 296.671 24.145C295.461 22.7517 293.957 22.055 292.161 22.055C290.327 22.055 288.787 22.7517 287.541 24.145C286.331 25.5383 285.726 27.3533 285.726 29.59ZM331.395 44L323.86 32.45L320.78 35.585V44H311.98V3.85H320.78V27.06L330.57 15.125H339.865L329.47 27.555L340.745 44H331.395ZM355.648 44.55C352.385 44.55 349.598 43.8717 347.288 42.515C344.978 41.1583 343.2 39.3617 341.953 37.125C340.743 34.8883 340.138 32.4683 340.138 29.865C340.138 27.0783 340.743 24.53 341.953 22.22C343.163 19.91 344.923 18.0583 347.233 16.665C349.543 15.2717 352.348 14.575 355.648 14.575C358.912 14.575 361.698 15.2717 364.008 16.665C366.318 18.0583 368.06 19.8917 369.233 22.165C370.443 24.4383 371.048 26.8767 371.048 29.48C371.048 30.5433 370.975 31.4783 370.828 32.285H349.488C349.635 34.2283 350.332 35.7133 351.578 36.74C352.862 37.73 354.31 38.225 355.923 38.225C357.207 38.225 358.435 37.9133 359.608 37.29C360.782 36.6667 361.588 35.8233 362.028 34.76L369.508 36.85C368.372 39.1233 366.593 40.975 364.173 42.405C361.79 43.835 358.948 44.55 355.648 44.55ZM349.268 26.895H361.808C361.625 25.0617 360.947 23.6133 359.773 22.55C358.637 21.45 357.225 20.9 355.538 20.9C353.852 20.9 352.422 21.45 351.248 22.55C350.112 23.65 349.452 25.0983 349.268 26.895ZM393.352 22.66C391.225 22.6967 389.3 23.045 387.577 23.705C385.853 24.365 384.607 25.355 383.837 26.675V44H375.037V15.125H383.122V20.955C384.112 19.0117 385.395 17.49 386.972 16.39C388.548 15.29 390.198 14.7217 391.922 14.685C392.655 14.685 393.132 14.7033 393.352 14.74V22.66Z" fill="white"/>
<rect width="14.1721" height="48.7058" rx="7.08605" transform="matrix(0.949096 -0.314987 0.342591 0.939485 32.8572 3.46402)" fill="#0074E0"/>
<rect width="14.1721" height="48.7058" rx="7.08605" transform="matrix(0.949015 -0.315232 0.342835 0.939396 14.1446 4.46791)" fill="#0074E0"/>
<rect width="14.253" height="48.4087" rx="7.1265" transform="matrix(0.999876 -0.0157267 0.0176277 0.999845 0 1.23713)" fill="#0074E0"/>
</svg>
